<?xml version="1.0" standalone="no"?>
<!DOCTYPE svg PUBLIC "-//W3C//DTD SVG 20010904//EN"
 "http://www.w3.org/TR/2001/REC-SVG-20010904/DTD/svg10.dtd">
<svg version="1.0" xmlns="http://www.w3.org/2000/svg"
 width="1563.000000pt" height="1563.000000pt" viewBox="0 0 1563.000000 1563.000000"
 preserveAspectRatio="xMidYMid meet">

<g transform="translate(0.000000,1563.000000) scale(0.100000,-0.100000)"
fill="#000000" stroke="none">
<path d="M0 7815 l0 -7815 7815 0 7815 0 0 7815 0 7815 -7815 0 -7815 0 0
-7815z m7980 5878 c149 -126 332 -273 453 -363 48 -35 87 -68 87 -72 0 -4 -15
-28 -34 -52 -19 -25 -56 -79 -83 -120 -26 -42 -51 -76 -55 -76 -4 0 -26 17
-51 38 -24 20 -63 53 -87 72 -113 91 -346 285 -352 294 -4 6 -8 8 -8 4 0 -14
0 -2067 0 -2080 0 -7 30 55 65 137 36 83 69 159 74 170 5 11 16 36 25 55 8 19
42 100 76 180 34 80 72 169 86 198 13 29 24 55 24 58 0 5 27 68 50 119 5 11
14 33 20 49 9 26 13 28 46 21 20 -3 44 -10 53 -15 9 -5 36 -18 61 -28 111 -46
140 -59 216 -98 183 -93 354 -226 482 -375 94 -109 84 -95 152 -201 131 -202
222 -427 233 -575 l4 -52 -51 -20 c-28 -11 -143 -50 -256 -86 -113 -37 -212
-70 -220 -75 -9 -4 -31 -11 -50 -15 -19 -4 -41 -11 -50 -15 -8 -4 -103 -36
-210 -70 -107 -35 -247 -80 -310 -100 -63 -20 -169 -54 -235 -75 -66 -20 -160
-50 -208 -66 -49 -16 -96 -29 -105 -29 -15 0 -302 88 -357 110 -11 4 -189 63
-395 130 -206 67 -382 125 -390 130 -9 4 -31 11 -50 15 -19 4 -39 11 -45 15
-5 4 -26 11 -45 15 -19 4 -39 10 -45 14 -5 4 -44 17 -85 30 -41 12 -84 27 -95
31 -11 5 -47 18 -80 29 -95 31 -135 50 -135 64 0 43 25 155 52 232 51 150 186
397 280 512 29 36 226 232 257 256 104 82 321 203 476 268 11 4 41 17 67 28
26 12 54 21 62 21 10 0 42 -56 91 -157 42 -87 107 -221 146 -298 l69 -140 -5
80 c-3 44 -10 100 -15 125 -5 25 -16 97 -25 160 -20 141 -64 370 -86 445 -5
17 -18 64 -29 105 -12 41 -25 84 -30 95 -4 11 -16 43 -25 70 -23 66 -79 184
-118 249 -39 63 -119 166 -129 166 -34 0 25 52 235 208 133 100 292 222 352
271 61 50 115 90 120 90 6 1 66 -47 135 -106z m-910 -901 c0 -29 40 -175 52
-190 6 -7 9 -14 7 -16 -2 -2 -49 -25 -103 -51 -158 -73 -267 -127 -316 -156
-45 -27 -132 -59 -270 -99 -41 -12 -84 -25 -95 -30 -11 -4 -67 -23 -125 -40
-58 -18 -130 -41 -160 -50 -30 -10 -95 -30 -145 -45 -49 -15 -99 -31 -110 -35
-11 -5 -74 -25 -140 -45 -66 -20 -129 -41 -140 -45 -11 -5 -49 -18 -85 -29
-128 -41 -675 -222 -695 -231 -11 -4 -49 -18 -85 -30 -36 -12 -72 -25 -80 -28
-8 -2 -42 -15 -75 -26 l-60 -22 -3 -369 c-5 -568 33 -1130 112 -1640 9 -55 21
-129 26 -165 13 -80 55 -294 75 -375 26 -108 56 -229 71 -285 8 -30 19 -73 25
-95 14 -56 69 -227 79 -245 4 -9 11 -31 15 -50 4 -19 11 -41 15 -50 5 -8 27
-67 50 -130 23 -63 51 -134 61 -157 11 -23 19 -44 19 -47 0 -15 166 -358 226
-466 81 -146 280 -461 337 -535 4 -5 24 -32 44 -60 168 -231 484 -581 718
-796 295 -271 614 -521 985 -770 164 -110 358 -230 466 -289 l61 -33 179 108
c239 144 442 280 657 442 98 74 185 140 195 148 9 8 60 49 113 92 245 201 609
547 749 712 25 30 74 88 110 130 36 42 85 103 110 136 25 33 48 62 51 65 29
26 279 404 334 505 21 39 48 86 60 105 34 56 179 355 225 465 22 55 45 109 50
120 25 54 77 195 125 340 109 330 161 533 245 970 32 167 81 543 105 815 27
291 34 495 34 955 l1 451 -92 33 c-51 18 -102 37 -113 41 -11 5 -69 25 -130
45 -60 20 -119 40 -130 45 -28 13 -769 258 -950 314 -170 54 -210 66 -315 100
-41 13 -129 41 -195 61 -66 21 -139 44 -163 51 -23 8 -48 14 -54 14 -7 0 -80
33 -163 74 -169 84 -323 156 -334 156 -21 0 -28 23 -15 48 8 15 14 33 14 40 0
7 4 20 10 30 5 9 14 43 20 75 12 61 23 68 72 48 13 -6 57 -19 98 -31 41 -12
86 -25 100 -30 14 -5 72 -23 130 -40 58 -18 116 -35 130 -40 14 -5 59 -18 100
-30 41 -12 86 -25 100 -30 14 -5 59 -18 100 -30 41 -12 84 -25 95 -29 20 -8
50 -18 405 -131 107 -34 202 -65 210 -70 9 -4 31 -11 50 -15 19 -4 40 -11 45
-15 6 -4 26 -11 45 -15 19 -4 40 -11 45 -15 6 -4 28 -12 50 -18 22 -5 150 -48
285 -95 135 -47 261 -90 280 -97 19 -6 44 -15 55 -20 11 -4 49 -18 85 -30 36
-12 74 -26 85 -30 11 -4 61 -22 110 -40 50 -17 129 -46 177 -63 l87 -32 7 -83
c14 -174 -10 -1087 -36 -1367 -6 -60 -15 -164 -20 -230 -27 -330 -86 -738
-146 -1015 -9 -41 -20 -93 -24 -115 -13 -64 -61 -262 -79 -330 -7 -22 -18 -62
-25 -90 -35 -125 -48 -171 -56 -190 -5 -11 -20 -57 -34 -101 -24 -78 -104
-297 -131 -359 -8 -16 -23 -51 -34 -77 -12 -26 -21 -49 -21 -52 0 -18 -157
-339 -232 -475 -32 -58 -58 -106 -58 -107 0 -2 -28 -49 -62 -104 -35 -56 -68
-109 -73 -118 -105 -174 -321 -462 -499 -667 -139 -161 -524 -532 -710 -686
-16 -13 -43 -36 -60 -51 -25 -21 -319 -254 -361 -285 -192 -146 -473 -334
-705 -473 -86 -52 -155 -92 -205 -120 -33 -18 -72 -40 -87 -48 -26 -15 -30
-15 -55 0 -16 9 -48 27 -73 40 -401 214 -946 591 -1355 937 -325 275 -635 586
-851 851 -161 199 -366 493 -474 680 -23 41 -58 100 -76 131 -36 60 -188 362
-223 444 -12 28 -26 59 -31 70 -33 74 -54 128 -105 265 -31 85 -60 162 -65
170 -4 9 -11 31 -15 50 -4 19 -11 41 -16 50 -4 8 -18 49 -29 90 -12 41 -26 89
-31 105 -4 17 -15 56 -24 87 -8 32 -22 82 -30 110 -25 95 -64 261 -85 368 -11
58 -25 128 -30 155 -22 108 -50 290 -76 490 -68 539 -96 1043 -92 1669 l3 379
95 34 c52 20 104 39 115 44 24 10 139 50 245 85 41 14 84 29 95 34 11 5 88 31
170 59 83 28 215 72 295 99 80 27 240 79 355 117 116 37 242 77 280 90 39 12
117 37 175 55 58 18 137 42 175 55 39 13 104 33 145 45 41 12 86 25 100 30 14
4 72 23 130 40 58 18 146 45 195 61 50 15 137 42 195 59 58 17 114 35 125 40
36 15 65 12 65 -8z m2775 -1922 c-5 -9 -22 -679 -32 -1267 -6 -400 -1 -507 33
-738 28 -182 91 -441 116 -469 4 -6 8 -17 8 -25 0 -18 54 -126 94 -189 14 -23
26 -44 26 -48 0 -3 -12 -16 -27 -28 -15 -11 -48 -39 -73 -61 -25 -22 -68 -58
-95 -80 -52 -43 -161 -135 -289 -243 -126 -108 -157 -134 -211 -182 -28 -25
-82 -72 -120 -105 -126 -109 -237 -209 -364 -324 -201 -183 -248 -226 -399
-369 -78 -74 -145 -132 -149 -129 -3 4 -1 93 6 199 6 106 18 344 26 528 8 184
20 421 25 525 10 176 20 419 39 962 4 117 9 214 12 216 2 1 22 12 44 22 98 49
383 226 575 360 225 155 245 177 284 305 39 131 87 420 69 420 -5 0 -54 -16
-109 -36 -54 -20 -117 -42 -139 -49 -89 -30 -207 -73 -212 -79 -4 -3 -13 -6
-21 -6 -8 0 -28 -6 -45 -14 -18 -8 -66 -26 -107 -39 -41 -14 -113 -39 -160
-57 -47 -17 -116 -42 -155 -55 -38 -13 -128 -45 -200 -71 -71 -25 -146 -51
-166 -58 -78 -25 -77 -21 -89 -221 -5 -99 -15 -229 -20 -290 -6 -60 -15 -186
-20 -280 -6 -93 -14 -186 -18 -205 -5 -19 -42 -82 -82 -139 l-74 -103 -23 28
c-13 16 -52 67 -86 114 l-62 85 -7 95 c-12 145 -36 485 -48 675 -13 203 -15
215 -38 215 -10 0 -22 4 -28 8 -5 5 -38 19 -74 31 -36 13 -73 27 -82 32 -10 5
-23 9 -29 9 -6 0 -25 6 -42 14 -31 13 -69 28 -159 62 -107 41 -125 48 -155 60
-17 8 -35 14 -41 14 -5 0 -23 7 -38 15 -16 8 -36 15 -45 15 -8 0 -19 4 -25 8
-5 5 -74 33 -154 62 -80 29 -149 57 -155 62 -5 4 -15 8 -23 8 -8 0 -28 6 -45
14 -18 7 -50 20 -72 29 -22 8 -75 29 -117 46 -42 17 -81 31 -87 31 -7 0 -11
-22 -11 -52 0 -61 25 -255 41 -313 25 -91 52 -169 71 -202 41 -69 342 -285
578 -415 170 -94 208 -114 246 -133 l42 -20 6 -195 c4 -107 11 -256 16 -330 5
-74 12 -223 15 -330 3 -107 10 -260 15 -340 5 -80 16 -291 25 -470 16 -347 33
-654 40 -707 2 -20 -1 -33 -7 -33 -7 0 -48 35 -92 78 -45 43 -121 113 -170
157 -50 44 -119 107 -156 140 -36 33 -101 92 -145 130 -44 39 -102 90 -130
115 -27 26 -81 73 -120 105 -38 33 -90 78 -115 100 -25 22 -70 60 -99 85 -30
25 -70 59 -90 76 -38 33 -366 304 -441 364 -24 19 -69 56 -99 82 -31 26 -59
48 -63 48 -15 0 -8 21 16 53 54 72 126 252 160 397 67 289 80 462 73 975 -3
237 -10 567 -16 735 -6 168 -12 372 -13 453 l-3 148 22 -6 c12 -3 61 -23 108
-45 47 -22 89 -40 92 -40 3 0 19 -7 36 -15 57 -26 336 -135 347 -135 6 0 18
-4 28 -10 9 -5 87 -32 172 -60 85 -28 164 -55 175 -60 24 -10 150 -51 350
-115 83 -26 159 -51 170 -55 11 -5 54 -18 95 -30 41 -12 84 -25 95 -30 11 -4
67 -23 125 -40 58 -18 131 -41 163 -51 72 -24 102 -24 174 0 113 36 219 69
293 91 41 12 84 25 95 30 11 4 108 36 215 70 235 75 368 119 395 130 11 4 49
18 85 30 36 12 72 25 80 30 9 4 30 11 48 14 17 4 34 12 37 17 4 5 13 9 22 9 8
0 29 6 46 14 18 8 86 35 152 62 133 52 202 83 350 154 90 44 124 53 110 30z
m-6551 -6775 c106 -17 142 -28 216 -65 145 -73 221 -209 235 -426 l7 -101
-122 -6 c-68 -4 -149 -7 -182 -7 l-58 0 0 43 c0 107 -46 192 -119 223 -51 22
-157 17 -211 -9 -83 -41 -128 -162 -106 -282 15 -77 104 -142 316 -230 165
-69 325 -163 387 -228 44 -45 98 -138 120 -205 25 -79 26 -336 1 -402 -34 -92
-47 -116 -89 -164 -68 -78 -136 -115 -294 -163 -87 -26 -395 -26 -475 0 -227
75 -344 212 -377 442 -8 58 -12 116 -9 130 l6 25 185 0 185 0 0 -48 c0 -70 26
-146 60 -179 93 -88 322 -82 412 10 30 31 38 48 44 93 20 160 -28 224 -226
307 -19 8 -71 29 -115 48 -388 161 -515 319 -515 639 1 404 291 626 724 555z
m1834 -187 l2 -168 -339 0 c-262 0 -340 -3 -343 -12 -3 -7 -4 -119 -3 -248 l1
-235 292 -5 c161 -3 292 -8 292 -12 0 -5 0 -80 0 -168 l0 -160 -292 -2 -293
-3 0 -233 c0 -145 4 -236 10 -240 6 -4 159 -7 340 -7 l330 0 3 -167 2 -168
-530 0 -530 0 0 993 c0 547 3 997 7 1000 3 4 241 6 527 5 l521 -3 3 -167z
m693 152 c12 -21 53 -112 83 -187 15 -35 37 -87 51 -117 14 -30 25 -57 25 -60
0 -2 16 -39 35 -81 20 -42 44 -98 54 -123 10 -26 44 -104 75 -174 30 -70 65
-149 76 -175 12 -27 25 -57 30 -68 25 -56 60 -136 81 -185 l24 -55 5 620 5
620 183 3 182 2 0 -1000 0 -1000 -200 0 c-199 0 -201 0 -209 23 -5 12 -21 49
-35 82 -15 33 -31 69 -36 80 -5 11 -19 43 -31 70 -12 28 -32 73 -44 100 -66
143 -85 187 -85 190 0 2 -14 34 -31 72 -48 107 -56 125 -77 173 -11 25 -32 72
-46 105 -43 95 -44 97 -66 150 -12 28 -25 59 -30 70 -5 11 -18 43 -29 70 -11
28 -20 43 -21 35 0 -8 0 -286 0 -617 l1 -603 -191 0 -190 0 0 1000 0 1000 201
-2 c167 -3 203 -6 210 -18z m2389 -152 l0 -173 -217 0 -218 0 -3 -827 -2 -828
-188 0 -187 0 0 827 0 828 -215 2 -215 2 -3 170 -2 171 625 0 625 0 0 -172z
m603 -830 l2 -998 -187 0 -188 0 0 1000 0 1000 185 -2 186 -3 2 -997z m748
982 c13 -22 69 -147 69 -153 0 -3 14 -36 31 -74 32 -73 39 -89 63 -143 8 -19
26 -60 39 -90 13 -30 44 -100 67 -155 23 -55 60 -138 81 -183 22 -46 39 -85
39 -87 0 -2 14 -34 31 -72 54 -120 59 -130 89 -200 l29 -68 3 620 3 620 183 3
182 2 0 -1000 0 -1000 -194 0 -194 0 -15 38 c-14 36 -45 104 -92 207 -52 113
-76 169 -101 228 -15 34 -42 96 -61 137 -19 41 -46 101 -59 132 -21 49 -43
100 -84 193 -44 100 -57 130 -85 198 -18 43 -35 81 -39 84 -3 4 -6 -269 -6
-605 l0 -612 -190 0 -190 0 0 1000 0 1000 196 -2 c163 -3 198 -6 205 -18z
m2299 -150 l0 -170 -332 -2 -333 -3 -3 -247 -2 -248 290 0 290 0 0 -170 0
-170 -290 0 -290 0 0 -240 c0 -185 3 -240 13 -240 6 0 161 -1 342 -2 l330 -3
3 -167 2 -168 -535 0 -535 0 0 993 c0 547 3 997 7 1000 3 4 240 7 525 7 l518
0 0 -170z m702 -661 l3 -830 303 0 302 0 0 -169 0 -170 -495 0 -495 0 0 993
c0 547 3 997 7 1000 3 4 89 7 190 7 l183 0 2 -831z"/>
</g>
</svg>
